<svg width="120" height="120" viewBox="0 0 120 120" fill="none" xmlns="http://www.w3.org/2000/svg">
<path d="M59.7906 15.1585L59.8677 15.1582C61.7635 15.1387 76.6676 22.8884 79.8072 24.3236C79.8693 50.7765 79.4791 77.4398 79.7169 103.867C78.0267 102.835 77.1033 102.284 75.2727 101.483C75.134 96.246 75.3229 90.9232 75.2261 85.6924C74.8728 66.6895 75.3826 47.6238 75.1543 28.6315C71.8612 27.4066 64.0293 23.5419 60.9172 21.8232C59.5892 21.7492 47.845 27.6762 45.6689 28.764C45.2714 35.8037 45.5738 45.3843 45.5547 52.64L45.5709 101.384C43.889 102.304 42.6751 102.883 40.9174 103.646C41.2921 77.5969 40.6192 50.9259 40.8254 24.7602C46.4034 21.5001 53.7816 18.4821 59.7906 15.1585Z" fill="white"/>
<path d="M27.2691 22.6182C28.6946 22.9978 30.1499 23.6447 31.5203 24.2123C31.8365 28.807 31.5831 36.9866 31.5711 41.7915L31.4857 76.0117L31.5735 97.018C31.5956 100.115 31.7259 104.146 31.4887 107.292C31.4558 107.726 30.9173 107.922 30.5659 108.106C29.1285 108.741 28.5248 109.125 27.2064 110C26.7348 96.7915 27.2183 81.6083 27.2231 68.227C27.2279 53.3636 26.8591 37.3382 27.2691 22.6182Z" fill="white"/>
<path d="M92.7361 23.0683L93.222 23.0483C93.5997 23.7531 93.4634 39.3996 93.464 41.2476L93.4754 109.911L90.8295 108.579L89.1261 107.82C88.8022 80.2546 89.0723 52.0738 89.1118 24.4657C90.1577 23.9111 91.5921 23.4629 92.7361 23.0683Z" fill="white"/>
<path d="M34.2464 24.9717C36.1201 25.8145 36.0818 25.9186 38.2263 26.4912C38.4044 32.1859 38.2597 38.1807 38.2562 43.9084L38.2263 79.1631L38.2807 96.6109C38.286 99.0518 38.3494 101.867 38.182 104.323C38.1408 104.927 37.5939 105.165 37.1367 105.464L34.0061 106.879L34.0569 50.3184L34.0025 34.4266C33.9954 32.0665 33.8896 27.1265 34.2464 24.9717Z" fill="white"/>
<path d="M85.9672 25.2705C86.1931 25.3145 86.2481 25.4229 86.4495 25.5971C86.2995 28.2024 86.3993 31.8701 86.3957 34.5373L86.3772 51.4612L86.312 106.603L84.5274 105.757C83.8012 105.464 82.9794 105.064 82.2574 104.735C82.0996 101.854 82.2132 98.0998 82.2156 95.1652L82.2174 77.5818C82.1678 60.5332 82.2186 43.4847 82.3704 26.4373L85.9672 25.2705Z" fill="white"/>
<path d="M72.2548 50.7324C72.7855 51.0844 72.651 60.0698 72.6672 61.4899C71.0618 63.1783 64.7899 67.5234 62.6383 69.2118C58.1779 72.7123 52.6542 77.8457 47.8991 80.6578C47.311 79.0446 47.7031 72.0585 47.7981 70.1866C52.5723 66.5444 57.3065 62.5968 62.141 58.9587C64.5377 57.1544 70.4402 52.6898 72.2548 50.7324Z" fill="white"/>
<path d="M67.8189 27.3662C69.1769 27.7508 71.145 29.1832 72.5638 29.9797C72.5985 35.7456 72.7993 42.7604 72.4652 48.4628L70.7475 49.9671C69.8421 50.5606 68.7692 51.4051 67.8841 52.0655C67.3552 44.3472 68.0048 35.2696 67.8189 27.3662Z" fill="white"/>
<path d="M52.4607 79.4644L52.75 79.667C53.1493 80.9974 52.8343 95.9517 52.7668 98.2515C51.3808 98.9621 49.6344 99.6548 48.1808 100.274L48.0661 100.284C47.6214 99.8276 47.8366 85.0687 47.8414 83.1843L52.4607 79.4644Z" fill="white"/>
<path d="M47.7658 43.9448C49.9921 44.8449 59.8704 54.2301 61.9353 56.377C61.5498 56.8222 60.8954 57.4073 60.4531 57.8287L58.2931 59.4364C57.0284 57.6667 49.863 51.5496 47.8195 49.7213C47.7323 47.7376 47.7436 45.9285 47.7658 43.9448Z" fill="white"/>
<path d="M62.2935 72.166C64.2802 72.8922 70.9077 79.3207 72.6314 81.1137L72.6709 87.0815C72.0523 86.6189 71.3554 85.9794 70.7619 85.4648C67.6044 83.0687 61.9929 77.7184 58.9023 74.941C60.1037 73.7797 60.8878 73.0924 62.2935 72.166Z" fill="white"/>
<path d="M52.2934 27.6685L52.4859 27.7457C52.9317 28.5513 52.7261 43.9332 52.7231 46.0633C51.9013 45.3282 50.9887 44.5775 50.1448 43.8567L47.9454 41.7356C47.784 37.8544 47.8181 34.0724 47.8366 30.1904L52.2934 27.6685Z" fill="white"/>
<path d="M51.0092 10C52.1227 10.0586 53.578 11.1675 54.5385 11.8099C52.2942 12.4772 48.0322 14.4957 45.8406 15.5167C41.1017 17.7101 36.398 19.9791 31.7314 22.3228C30.964 22.2057 28.8656 21.5178 28.0234 21.2631C30.8337 19.7002 34.7723 17.9978 37.7463 16.5865C42.2038 14.4651 46.6253 12.2693 51.0092 10Z" fill="white"/>
<path d="M68.4084 10.5602C68.6176 10.53 68.8226 10.5158 69.033 10.502C71.1266 10.3648 89.8295 19.6189 92.5082 21.2648C91.4528 21.486 90.6071 21.7623 89.5815 22.0891C89.1601 22.1885 88.5086 21.9278 88.1184 21.728C80.7198 17.941 73.1372 14.7531 65.5527 11.387C66.472 11.0978 67.476 10.829 68.4084 10.5602Z" fill="white"/>
<path d="M67.7113 85.4624C68.5642 85.8079 71.1497 88.0647 72.6314 88.9438C72.6846 92.7683 72.6863 96.594 72.6373 100.419C71.0685 99.8101 69.2964 98.8873 67.7645 98.1384C67.5721 94.3557 67.7095 89.3263 67.7113 85.4624Z" fill="white"/>
<path d="M47.627 52.1646C49.6668 53.1973 55.157 58.6015 56.9978 60.4465C56.326 61.068 55.4032 61.8014 54.6872 62.405L52.5159 64.2154C51.1514 62.989 49.1893 60.8481 47.7519 59.4525C47.6036 57.2591 47.6503 54.4082 47.627 52.1646Z" fill="white"/>
<path d="M67.579 68.1484C69.8812 68.8435 71.0772 70.3538 72.6473 72.1337C72.6389 73.4844 73.0543 77.0137 72.4064 77.857C71.6754 77.7799 71.8679 77.7679 71.226 77.138C69.1264 74.9398 66.5654 72.8951 64.3301 70.6885C65.6085 69.5022 66.1117 69.073 67.579 68.1484Z" fill="white"/>
<path d="M69.8904 15.2847C69.9968 15.3035 85.2751 22.178 86.0401 22.6462L85.9851 23.0667L85.2332 23.637C84.9003 23.7581 83.6058 24.2056 83.4737 24.1419C81.4147 23.1527 70.1785 17.8695 69.2599 16.9501C69.2396 16.0417 69.3615 16.1348 69.8904 15.2847Z" fill="white"/>
<path d="M49.8966 15.3878C50.6939 15.3349 51.1147 15.5634 51.6185 16.1012C51.5838 16.5279 51.5414 16.8339 51.1404 17.094C46.9035 19.8429 41.9512 21.4323 37.7645 24.3341C37.7645 24.3341 37.2493 24.3028 37.1997 24.2998C36.1078 24.0749 35.0935 23.6899 34.041 23.3231C38.9491 20.3127 44.3819 18.913 49.8966 15.3878Z" fill="white"/>
<path d="M72.6734 63.9883L73.0225 64.2064C73.2364 65.7819 73.6626 68.6806 72.723 69.9482C71.8468 70.1048 71.8235 69.9249 70.9145 69.54C67.6297 66.9617 70.3778 65.6815 72.6734 63.9883Z" fill="white"/>
</svg>
